<svg width="131" height="127" viewBox="0 0 131 127" fill="none" xmlns="http://www.w3.org/2000/svg">
<path d="M129.23 23C120.909 -14.1556 67.2703 0.777739 33.4581 19.0889C-6.0189 40.4222 -1.77026 61.5777 4.95677 76.6889C11.3297 90.7333 32.573 126.644 72.4041 126.289C111.173 125.578 137.373 63.5333 129.23 23Z" fill="#FF7320"/>
<path d="M83.0257 65.1333C83.0257 72.7777 76.8297 78.9999 69.2176 78.9999C61.6054 78.9999 55.4094 72.7777 55.4094 65.1333C55.4094 57.4888 61.6054 51.2666 69.2176 51.2666C76.8297 51.2666 83.0257 57.4888 83.0257 65.1333Z" fill="white"/>
<path d="M40.8933 44.8666C40.8933 46.6444 41.6014 48.2444 42.8406 49.6666C44.2568 51.0889 45.85 51.8 47.6203 51.8C49.3906 51.8 50.8068 51.0889 52.223 49.8444C52.223 49.8444 67.8014 34.5555 69.2176 33.1333C70.6339 34.5555 86.2122 49.8444 86.2122 49.8444C87.6285 51.2666 89.0446 51.8 90.8149 51.8C92.5852 51.8 94.1784 51.0889 95.5947 49.6666C96.8338 48.2444 97.542 46.6444 97.542 44.8666C97.542 43.0889 96.8338 41.6666 95.5947 40.2444L74.3514 18.9111C72.9352 17.4889 71.1649 16.6 69.2176 16.6C67.2703 16.6 65.5001 17.3111 64.0839 18.9111L42.8406 40.2444C41.6014 41.6666 40.8933 43.2666 40.8933 44.8666Z" fill="white"/>
<path d="M97.542 85.4C97.542 83.6222 96.8338 82.0222 95.5947 80.6C94.1784 79.1778 92.5852 78.4667 90.8149 78.4667C89.0446 78.4667 87.6285 79.1778 86.2122 80.4222C86.2122 80.4222 70.6339 95.7111 69.2176 97.1333C67.8014 95.7111 52.223 80.4222 52.223 80.4222C50.8068 79 49.3906 78.4667 47.6203 78.4667C45.85 78.4667 44.2568 79.1778 42.8406 80.6C41.6014 82.0222 40.8933 83.6222 40.8933 85.4C40.8933 87.1778 41.6014 88.6 42.8406 90.0222L64.0839 111.356C65.5001 112.778 67.2703 113.667 69.2176 113.667C71.1649 113.667 72.9352 112.956 74.3514 111.356L95.5947 90.0222C96.8338 88.6 97.542 87 97.542 85.4Z" fill="white"/>
</svg>