<svg width="20" height="22" viewBox="0 0 20 22" fill="none" xmlns="http://www.w3.org/2000/svg">
<path d="M8.49951 9.01285C9.32794 9.01285 9.99951 8.34128 9.99951 7.51285C9.99951 6.68443 9.32794 6.01285 8.49951 6.01285C7.67108 6.01285 6.99951 6.68443 6.99951 7.51285C6.99951 8.34128 7.67108 9.01285 8.49951 9.01285Z" fill="#39373A"/>
<path d="M6.49951 14.0129C7.32794 14.0129 7.99951 13.3413 7.99951 12.5129C7.99951 11.6844 7.32794 11.0129 6.49951 11.0129C5.67108 11.0129 4.99951 11.6844 4.99951 12.5129C4.99951 13.3413 5.67108 14.0129 6.49951 14.0129Z" fill="#39373A"/>
<path d="M12.9995 15.0129C13.5518 15.0129 13.9995 14.5651 13.9995 14.0129C13.9995 13.4606 13.5518 13.0129 12.9995 13.0129C12.4472 13.0129 11.9995 13.4606 11.9995 14.0129C11.9995 14.5651 12.4472 15.0129 12.9995 15.0129Z" fill="#39373A"/>
<path d="M19.9495 10.0029C18.1595 9.97285 16.2495 8.05285 17.2695 5.78285C14.2995 6.78285 11.4895 4.19285 12.0795 1.22285C5.10951 -0.247146 -0.000488281 5.42285 -0.000488281 11.0129C-0.000488281 16.5329 4.47951 21.0129 9.99951 21.0129C15.8895 21.0129 20.5395 15.9329 19.9495 10.0029ZM9.99951 19.0129C5.58951 19.0129 1.99951 15.4229 1.99951 11.0129C1.99951 7.70285 4.72951 2.83285 10.0795 2.99285C10.4995 5.53285 12.5195 7.55285 15.0695 7.93285C15.1395 8.29285 15.5895 10.4829 17.9895 11.5629C17.6995 15.8729 14.0595 19.0129 9.99951 19.0129Z" fill="#39373A"/>
</svg>
